<svg width="256" height="256" viewBox="0 0 256 256" fill="none" xmlns="http://www.w3.org/2000/svg">
<rect width="256" height="256" fill="#8D3EAD"/>
<path d="M57.3371 36.4692C54.3281 37.1509 51.239 38.6344 49.9953 39.9977C49.554 40.4388 48.6714 41.8422 48.0696 43.005C47.0265 45.0098 46.9462 45.5711 46.9864 49.2199C47.0265 52.588 47.2271 53.9513 48.3103 57.2793C54.8497 77.6083 79.0414 105.355 113.142 131.658C114.426 132.661 115.951 133.784 116.512 134.144C117.074 134.505 118.238 135.347 119.12 136.029C120.885 137.352 132.64 145.251 135.168 146.815C136.05 147.376 137.414 148.218 138.177 148.74C139.501 149.582 142.871 151.506 146.963 153.752C165.819 164.177 181.184 169.67 194.584 170.833C199.799 171.274 206.018 169.59 208.666 167.024C211.354 164.417 211.795 163.054 211.795 157.32C211.755 152.869 211.634 151.947 210.631 149.1C209.267 145.171 206.138 138.595 204.453 135.909C202.969 133.583 202.848 133.663 203.972 136.149C204.935 138.314 205.978 143.126 205.978 145.331C205.978 148.459 205.135 150.584 203.169 152.509C200.963 154.674 199.077 155.315 194.544 155.596C187.924 155.997 179.7 154.032 168.266 149.301C164.214 147.657 154.305 142.725 150.814 140.68C149.29 139.758 146.2 137.954 143.994 136.63C130.915 128.932 114.346 116.462 100.465 103.952C94.086 98.1778 83.2539 86.8305 78.7204 81.1769C62.6327 61.0885 58.1795 46.6938 66.444 41.1605C69.5332 39.1156 74.7487 38.5943 81.6892 39.6369C84.6179 40.0779 75.872 37.7523 71.7799 36.9905C65.6417 35.8678 60.7873 35.7074 57.3371 36.4692Z" fill="white"/>
<path d="M65.1602 53.6306C65.1602 54.2721 66.9255 59.0837 67.8081 60.7276L68.3697 61.8904L129.07 61.9706L189.73 62.0909L189.85 76.2049L189.93 90.2788L192.738 90.4392L195.547 90.5595V72.8769C195.547 56.0363 195.507 55.1141 194.784 54.232L194.022 53.2697L129.591 53.1494C74.7888 53.0692 65.1602 53.1494 65.1602 53.6306ZM125.178 55.6755C126.462 56.9586 126.342 58.5223 124.857 59.6049C123.533 60.5673 122.009 60.2866 121.086 58.8832C120.524 58.0412 120.524 57.6803 120.926 56.718C121.768 54.633 123.694 54.1919 125.178 55.6755Z" fill="white"/>
<path d="M134.365 73.9194C134.004 74.5609 133.643 75.1223 133.523 75.1223C133.122 75.1223 131.557 74.2001 131.316 73.7991C131.156 73.5986 130.715 73.5986 130.193 73.8793C129.511 74.2402 129.351 74.7213 129.351 76.245C129.351 77.4078 129.19 77.929 128.989 77.6083C128.829 77.2875 128.187 77.1672 127.505 77.2474C126.261 77.4078 126.141 77.9691 126.743 80.415C126.984 81.3774 126.863 81.6179 125.78 82.2194C124.215 83.1416 124.215 83.743 125.78 84.5851C126.863 85.1063 126.984 85.3469 126.743 86.2691C125.94 89.6372 125.9 89.557 127.706 89.557H129.351V91.1609C129.351 92.9252 130.474 94.0078 131.316 93.0054C131.557 92.7247 131.677 92.4039 131.597 92.3237C131.517 92.2435 131.958 92.1232 132.6 92.0831C133.523 92.0029 133.884 92.2435 134.365 93.1657C135.047 94.529 136.01 94.7295 136.813 93.6469C137.695 92.5242 137.495 91.8426 136.371 92.043C135.81 92.1633 135.047 92.0029 134.686 91.7223C134.044 91.2411 134.125 91.201 135.368 91.1609C136.131 91.1609 137.374 91.0005 138.096 90.8C139.22 90.4793 139.38 90.5194 139.38 91.1609C139.38 91.7223 139.14 91.8426 138.498 91.6822C137.896 91.5619 138.137 91.8426 139.18 92.4841C141.105 93.7271 141.787 93.3662 141.787 91.1208C141.787 89.6372 141.787 89.5971 143.513 89.4769C144.877 89.3967 145.238 89.1962 145.318 88.5145C145.398 88.0735 145.157 87.4319 144.796 87.1513C143.874 86.3894 144.074 85.6677 145.398 84.8658C146.923 83.9836 146.923 83.1416 145.398 82.2595C144.074 81.4976 143.874 80.6957 144.796 79.9339C145.117 79.6532 145.398 79.0117 145.398 78.4904C145.398 77.6083 145.238 77.5281 143.593 77.5281H141.787L141.707 75.8039L141.667 74.1199L141.426 75.9242L141.145 77.7286L140.825 76.4455C140.664 75.7237 140.624 74.7614 140.784 74.3204C141.025 73.5986 140.945 73.5986 139.3 74.5208C137.294 75.6836 136.813 75.7638 137.134 74.8817C137.495 73.9996 136.692 72.7165 135.77 72.7165C135.288 72.7165 134.726 73.1977 134.365 73.9194ZM135.689 75.1624C134.927 75.6435 134.686 75.6034 134.686 74.9619C134.686 74.6411 135.007 74.5208 135.489 74.6411C136.05 74.8015 136.131 74.9218 135.689 75.1624ZM139.38 75.7237C139.099 76.0445 138.738 76.3252 138.538 76.3252C138.337 76.3252 138.297 76.0445 138.417 75.7237C138.578 75.403 138.939 75.1223 139.26 75.1223C139.781 75.1223 139.781 75.2426 139.38 75.7237ZM133.563 75.9242C133.443 76.1247 133.041 76.3252 132.721 76.3252C132.4 76.3252 132.159 76.5257 132.159 76.7662C132.159 77.0469 132.44 77.087 132.881 76.8865C133.242 76.7262 134.406 76.5257 135.449 76.4054C139.942 76.0044 143.673 80.6556 142.59 85.3068C142.148 87.2715 139.059 90.2387 137.093 90.5996C132.921 91.3614 128.548 87.7928 128.548 83.6228C128.548 81.5778 129.752 79.0117 131.156 78.0894C131.718 77.7286 132.038 77.2474 131.878 77.0068C131.758 76.8063 131.958 76.3653 132.359 76.0445C133.242 75.4431 133.924 75.3629 133.563 75.9242ZM127.345 78.2899C127.345 78.5305 127.184 78.8112 126.943 78.9315C126.743 79.0518 126.542 78.8914 126.542 78.5706C126.542 78.2097 126.743 77.929 126.943 77.929C127.184 77.929 127.345 78.0894 127.345 78.2899ZM144.435 79.3725C144.275 79.7334 144.074 79.974 143.994 79.8537C143.874 79.7334 143.874 79.3324 144.034 78.9716C144.195 78.6107 144.395 78.3701 144.475 78.4904C144.596 78.6107 144.596 79.0117 144.435 79.3725ZM127.666 80.7759C127.545 81.0967 127.385 80.8962 127.224 80.3749C127.064 79.6933 127.104 79.5329 127.425 79.8537C127.625 80.0542 127.746 80.4952 127.666 80.7759ZM129.15 87.7527C129.591 88.3942 130.233 89.1561 130.554 89.4368C130.875 89.7174 130.955 89.958 130.715 89.958C130.474 89.958 130.033 89.6773 129.752 89.3566C129.471 89.0358 128.789 88.715 128.187 88.715C127.264 88.6348 127.224 88.6348 128.027 88.4744C128.789 88.3141 128.869 88.1537 128.548 87.5121C127.946 86.4696 127.465 86.5498 127.184 87.7928C127.024 88.3942 126.783 88.7551 126.663 88.6348C126.542 88.4744 126.743 87.6725 127.104 86.7503C127.465 85.8682 127.786 84.2643 127.826 83.2218C127.866 81.5377 127.906 81.6179 128.107 83.9435C128.267 85.5073 128.669 87.031 129.15 87.7527ZM126.141 83.1015C126.141 83.302 125.86 83.5426 125.539 83.703C124.937 83.9034 124.737 83.5025 125.218 83.0213C125.579 82.6203 126.141 82.6604 126.141 83.1015ZM143.954 86.5899C144.315 87.5522 144.235 87.7126 143.593 87.1513C142.911 86.5899 142.79 85.9484 143.352 85.9484C143.553 85.9484 143.833 86.229 143.954 86.5899ZM144.997 88.3542C144.997 88.5546 144.716 88.7551 144.355 88.7551C144.034 88.7551 143.874 88.5546 143.994 88.3542C144.114 88.1136 144.395 87.9532 144.636 87.9532C144.836 87.9532 144.997 88.1136 144.997 88.3542ZM141.386 91.3614C141.386 92.4841 140.945 92.845 140.183 92.3237C139.781 92.0831 139.741 91.9628 140.102 91.9628C140.343 91.9628 140.584 91.4817 140.584 90.9203C140.584 90.359 140.744 89.9981 140.985 90.1585C141.226 90.2788 141.386 90.8401 141.386 91.3614Z" fill="white"/>
<path d="M132.119 79.8938C131.477 80.5353 130.955 81.4174 130.955 81.8184C130.995 82.2595 131.196 82.059 131.557 81.2571C131.838 80.5754 132.6 79.7334 133.242 79.3725C133.844 79.0518 134.125 78.7711 133.844 78.731C133.523 78.731 132.761 79.2522 132.119 79.8938Z" fill="white"/>
<path d="M137.575 79.2121C138.016 79.4527 138.819 80.0141 139.34 80.4952L140.303 81.3373L139.741 80.4551C139.461 79.974 138.778 79.4126 138.297 79.172C137.053 78.6107 136.532 78.6107 137.575 79.2121Z" fill="white"/>
<path d="M130.634 83.5426C130.634 84.1039 130.715 84.3044 130.835 84.0237C130.915 83.7831 130.915 83.302 130.835 83.0213C130.715 82.7807 130.634 82.9812 130.634 83.5426Z" fill="white"/>
<path d="M130.955 85.3068C130.955 85.6276 131.116 85.9885 131.316 86.1087C131.517 86.2691 131.597 85.9885 131.477 85.5474C131.236 84.6252 130.955 84.5049 130.955 85.3068Z" fill="white"/>
<path d="M138.939 87.031C138.417 87.6725 138.458 87.7126 139.099 87.1914C139.741 86.6701 139.942 86.3493 139.621 86.3493C139.541 86.3493 139.22 86.6701 138.939 87.031Z" fill="white"/>
<path d="M132.961 87.7527C133.523 88.0735 134.165 88.3141 134.365 88.3141C134.606 88.3141 134.325 88.0735 133.764 87.7527C133.202 87.4319 132.6 87.1914 132.359 87.1914C132.159 87.1914 132.4 87.4319 132.961 87.7527Z" fill="white"/>
<path d="M51.1186 109.886V145.291H87.5065C107.526 145.291 123.734 145.131 123.533 144.97C123.293 144.77 121.287 143.326 119.04 141.763L114.948 138.876H86.0622H57.1365V111.289V83.7029L55.1706 80.816C54.0874 79.2522 52.7234 77.1672 52.1617 76.245L51.1186 74.5208V109.886Z" fill="white"/>
<path d="M170.232 93.2059C168.868 93.7271 168.266 95.0904 168.266 97.7769V99.9822H147.244C134.446 99.9822 125.78 99.8218 125.138 99.5812C124.416 99.3005 123.614 99.3406 122.41 99.7416C121.487 100.062 120.123 100.423 119.441 100.584C117.435 100.985 117.716 102.107 120.003 102.749C121.447 103.19 126.622 103.31 144.957 103.35L168.065 103.39L168.186 104.994C168.386 108.603 168.627 109.244 170.071 109.846C170.914 110.207 172.839 110.407 175.166 110.407C178.416 110.407 179.098 110.287 180.502 109.405C182.428 108.242 185.798 108.042 187.322 109.044C187.844 109.405 188.486 109.565 188.727 109.405C188.967 109.244 189.088 109.365 189.048 109.686C188.887 110.367 210.471 110.648 213.159 110.006C216.288 109.204 219.377 106.117 217.973 105.115C217.572 104.834 217.652 104.794 218.254 104.994C219.297 105.275 219.618 104.433 219.618 101.386C219.618 99.3807 219.016 98.0174 217.612 96.8546C217.291 96.5339 217.251 96.4136 217.492 96.574C217.813 96.7343 217.933 96.6141 217.773 96.2131C217.652 95.8923 216.609 95.0102 215.486 94.2885L213.44 92.9653L201.685 92.845L189.93 92.7247L188.205 93.687C187.282 94.2484 185.958 94.7696 185.276 94.8899C183.591 95.2107 181.184 94.6092 180.141 93.6068C179.339 92.845 178.777 92.7648 175.247 92.8049C173.08 92.8049 170.793 93.0054 170.232 93.2059ZM177.012 93.8474C175.929 93.9276 174.244 93.9276 173.201 93.8474C172.117 93.7672 173 93.7271 175.086 93.7271C177.172 93.7271 178.055 93.7672 177.012 93.8474ZM214.001 93.9677C214.001 94.1682 213.801 94.3687 213.56 94.3687C213.36 94.3687 213.279 94.1682 213.4 93.9677C213.52 93.7271 213.721 93.5667 213.841 93.5667C213.921 93.5667 214.001 93.7271 214.001 93.9677ZM188.205 95.0102C188.085 95.1305 187.724 95.1706 187.443 95.0503C187.122 94.93 187.242 94.8097 187.683 94.8097C188.125 94.7696 188.365 94.8899 188.205 95.0102ZM169.469 96.7744C169.229 97.2556 168.908 97.5363 168.787 97.4561C168.707 97.3358 168.828 96.8546 169.068 96.3735C169.309 95.8923 169.63 95.6116 169.75 95.6918C169.831 95.8121 169.71 96.2933 169.469 96.7744ZM213.881 96.6141C213.761 96.7343 213.4 96.7744 213.119 96.6542C212.798 96.5339 212.918 96.4136 213.36 96.4136C213.801 96.3735 214.042 96.4938 213.881 96.6141ZM215.045 97.6566C215.205 97.8971 215.165 97.9773 214.884 97.817C214.603 97.6566 214.403 98.0575 214.322 98.8595L214.202 100.183L202.086 100.303L189.93 100.383V98.9798V97.5764L202.287 97.4561C209.067 97.416 214.643 97.3358 214.684 97.2556C214.724 97.2155 214.884 97.3759 215.045 97.6566ZM189.529 99.2604C189.529 99.902 189.409 100.022 189.088 99.7015C188.847 99.4609 188.767 99.0599 188.887 98.8194C189.328 98.1377 189.529 98.2981 189.529 99.2604ZM216.81 99.3406C216.81 99.7015 215.606 99.902 215.406 99.5812C215.245 99.3406 215.526 99.1802 215.967 99.1802C216.449 99.1802 216.81 99.2604 216.81 99.3406ZM147.083 100.784C158.798 100.784 168.306 100.864 168.186 100.985C168.065 101.105 158.517 101.185 146.963 101.185C126.783 101.185 119.963 100.944 122.731 100.383C123.413 100.223 124.336 100.263 124.857 100.463C125.379 100.624 135.368 100.784 147.083 100.784ZM120.123 101.145C120.123 101.345 120.524 101.626 121.046 101.787C121.808 102.027 121.848 102.107 121.206 102.268C120.805 102.388 120.163 102.308 119.802 102.147C119.441 101.987 119 101.907 118.839 101.907C118.318 102.027 118.478 101.265 119.04 101.065C119.802 100.744 120.123 100.744 120.123 101.145ZM210.11 101.065C208.946 101.145 207.021 101.145 205.897 101.065C204.734 100.985 205.657 100.944 207.984 100.944C210.311 100.944 211.233 100.985 210.11 101.065ZM214.001 101.426C214.001 101.506 213.721 101.586 213.4 101.586C213.079 101.586 212.798 101.426 212.798 101.185C212.798 100.985 213.079 100.904 213.4 101.025C213.721 101.185 214.001 101.345 214.001 101.426ZM216.409 101.546C216.409 102.107 216.208 102.268 215.606 102.107C214.603 101.827 214.563 101.305 215.526 101.065C215.887 100.944 216.248 100.864 216.328 100.824C216.368 100.824 216.409 101.145 216.409 101.546ZM160.443 102.268C140.825 102.548 124.937 102.548 124.937 102.268C124.937 102.107 134.646 102.027 146.521 102.067C158.357 102.147 164.655 102.228 160.443 102.268ZM206.9 102.268C204.012 102.348 199.117 102.348 196.068 102.268C193.019 102.228 195.426 102.147 201.364 102.147C207.342 102.147 209.829 102.228 206.9 102.268ZM213.721 102.268C213.44 102.348 212.958 102.348 212.718 102.268C212.437 102.147 212.637 102.067 213.199 102.067C213.761 102.067 213.961 102.147 213.721 102.268ZM214.563 103.831C214.724 104.232 214.603 104.874 214.282 105.315C213.801 106.077 213.159 106.117 202.447 106.277C190.131 106.518 189.93 106.478 189.93 104.353V103.19H202.126C213.079 103.19 214.363 103.27 214.563 103.831ZM189.007 105.275C188.887 105.596 188.767 105.475 188.767 105.034C188.727 104.593 188.847 104.353 188.967 104.513C189.088 104.633 189.128 104.994 189.007 105.275ZM216.409 104.954C216.409 105.034 216.128 105.235 215.767 105.355C215.446 105.475 215.285 105.435 215.406 105.195C215.646 104.794 216.409 104.633 216.409 104.954ZM217.612 106.398C217.612 106.598 217.452 106.799 217.211 106.799C217.01 106.799 216.81 106.598 216.81 106.398C216.81 106.157 217.01 105.997 217.211 105.997C217.452 105.997 217.612 106.157 217.612 106.398ZM215.406 108.402C215.285 108.603 214.924 108.803 214.684 108.803C214.403 108.803 214.443 108.643 214.804 108.402C215.566 107.921 215.727 107.921 215.406 108.402ZM209.187 109.605C209.629 109.886 209.147 109.966 207.582 109.966C205.897 109.926 205.617 109.846 206.379 109.605C207.783 109.164 208.505 109.164 209.187 109.605ZM213.319 109.485C213.039 109.565 212.477 109.565 212.116 109.485C211.715 109.365 211.955 109.285 212.597 109.285C213.279 109.285 213.56 109.365 213.319 109.485Z" fill="white"/>
<path d="M151.536 107.881C151.175 108.523 150.814 109.084 150.734 109.164C150.694 109.244 150.012 108.924 149.29 108.483C147.565 107.48 147.083 107.761 146.923 109.806C146.802 111.37 146.762 111.41 145.077 111.53C142.991 111.69 142.59 112.372 143.753 113.856C144.836 115.259 144.836 115.299 143.232 116.181C141.627 117.023 141.667 118.106 143.352 119.148C143.914 119.509 144.475 119.83 144.515 119.87C144.596 119.91 144.275 120.512 143.793 121.153C142.51 122.877 142.951 123.639 145.197 123.639H147.003V125.443C147.003 127.408 147.645 127.769 149.169 126.646C150.172 125.885 151.015 125.885 151.015 126.566C151.015 127.288 152.299 128.451 153.141 128.451C153.462 128.451 153.863 128.09 154.024 127.689C154.505 126.165 155.307 125.885 156.631 126.847C158.196 127.97 158.838 127.488 158.838 125.323C158.838 123.88 158.878 123.84 160.443 123.719C162.328 123.559 162.729 123.078 162.128 121.755C161.807 121.033 161.606 120.953 161.325 121.313C161.085 121.674 161.044 121.634 161.205 121.113C161.325 120.712 161.446 120.231 161.446 120.071C161.446 119.91 162.007 119.469 162.649 119.108C164.013 118.306 164.254 116.983 163.091 116.622C161.646 116.181 161.325 115.379 162.007 114.056C162.89 112.372 162.489 111.61 160.643 111.61C158.477 111.61 158.076 112.292 159.039 114.216C160.362 116.783 160.443 118.146 159.4 120.391C158.116 123.278 155.989 124.642 152.82 124.642C150.935 124.642 150.132 124.401 149.169 123.679C145.438 120.953 144.676 116.301 147.404 113.174C148.247 112.212 148.407 111.73 148.086 111.49C147.765 111.249 147.845 111.209 148.287 111.37C148.688 111.49 149.611 111.329 150.373 111.009C152.419 110.167 154.184 110.287 156.19 111.41C158.316 112.653 159.039 112.252 159.039 109.966C159.039 108.122 158.036 107.6 156.431 108.643C155.669 109.124 155.307 109.204 154.906 108.843C154.585 108.603 154.184 108.563 154.024 108.723C153.823 108.884 153.823 108.803 153.943 108.523C154.385 107.801 153.823 106.799 152.981 106.799C152.579 106.799 151.937 107.28 151.536 107.881ZM158.236 109.204C158.236 109.726 158.036 109.926 157.594 109.726C157.113 109.565 157.033 109.726 157.273 110.648L157.554 111.811L156.591 111.009C156.07 110.568 155.588 110.207 155.508 110.167C155.107 109.966 156.832 108.803 157.273 108.964C157.594 109.084 157.835 109.004 157.835 108.803C157.835 108.563 157.915 108.402 158.036 108.402C158.156 108.402 158.236 108.763 158.236 109.204ZM151.937 109.886C151.657 109.966 151.175 109.966 150.935 109.886C150.654 109.766 150.854 109.686 151.416 109.686C151.978 109.686 152.178 109.766 151.937 109.886ZM147.203 112.813C147.083 113.014 146.762 113.214 146.562 113.214C146.321 113.214 146.281 113.014 146.401 112.813C146.521 112.572 146.842 112.412 147.043 112.412C147.284 112.412 147.324 112.572 147.203 112.813ZM162.248 112.813C162.248 113.014 161.526 113.214 160.603 113.214C159.64 113.214 159.079 113.054 159.239 112.813C159.359 112.572 160.122 112.412 160.884 112.412C161.646 112.412 162.248 112.572 162.248 112.813ZM161.044 114.617C160.804 114.938 160.683 115.379 160.844 115.66C161.285 116.301 161.446 119.228 161.044 119.228C160.724 119.228 160.242 114.818 160.523 114.297C160.603 114.136 160.884 114.016 161.125 114.016C161.406 114.016 161.365 114.216 161.044 114.617ZM143.392 117.184C143.392 117.424 143.232 117.705 142.991 117.825C142.79 117.945 142.59 117.785 142.59 117.464C142.59 117.103 142.79 116.823 142.991 116.823C143.232 116.823 143.392 116.983 143.392 117.184ZM145.238 118.266C145.077 118.747 144.836 118.828 144.556 118.547C144.355 118.346 144.275 117.865 144.435 117.464C144.596 116.983 144.836 116.903 145.117 117.184C145.318 117.384 145.398 117.865 145.238 118.266ZM163.452 117.665C163.452 117.905 163.291 117.945 163.05 117.825C162.85 117.705 162.649 117.384 162.649 117.184C162.649 116.943 162.85 116.903 163.05 117.023C163.291 117.143 163.452 117.464 163.452 117.665ZM145.799 120.512C145.799 120.712 145.639 120.832 145.398 120.832C145.197 120.832 144.997 120.431 144.997 119.91C144.997 119.188 145.077 119.148 145.398 119.629C145.599 119.95 145.799 120.351 145.799 120.512ZM146.2 121.634C146.2 121.835 146 122.035 145.759 122.035C145.559 122.035 145.478 121.835 145.599 121.634C145.719 121.394 145.92 121.233 146.04 121.233C146.12 121.233 146.2 121.394 146.2 121.634ZM159.319 122.516C159.199 122.837 159.079 122.717 159.079 122.276C159.039 121.835 159.159 121.594 159.279 121.755C159.4 121.875 159.44 122.236 159.319 122.516ZM144.195 122.436C144.195 122.637 144.515 122.837 144.877 122.837C145.238 122.837 145.438 122.957 145.278 123.078C144.957 123.399 143.392 122.877 143.392 122.396C143.392 122.196 143.593 122.035 143.793 122.035C144.034 122.035 144.195 122.196 144.195 122.436ZM161.446 122.436C161.446 122.637 161.165 122.837 160.844 122.837C160.523 122.837 160.242 122.637 160.242 122.436C160.242 122.196 160.523 122.035 160.844 122.035C161.165 122.035 161.446 122.196 161.446 122.436ZM158.076 125.484L158.116 127.047L157.955 125.524C157.875 124.722 157.634 124.12 157.394 124.241C157.193 124.401 157.033 124.281 157.033 124.04C157.033 123.759 157.273 123.639 157.554 123.719C157.795 123.84 158.076 124.601 158.076 125.484ZM151.135 125.123C150.854 125.203 150.373 125.203 150.132 125.123C149.851 125.002 150.052 124.922 150.614 124.922C151.175 124.922 151.376 125.002 151.135 125.123ZM152.419 126.285C152.058 126.646 151.697 126.847 151.576 126.727C151.215 126.366 151.817 125.644 152.459 125.644C152.981 125.644 152.981 125.724 152.419 126.285ZM153.903 126.646C153.823 127.208 153.663 127.649 153.582 127.649C153.502 127.649 153.422 127.208 153.422 126.646C153.422 126.085 153.582 125.644 153.783 125.644C153.943 125.644 154.024 126.085 153.903 126.646ZM148.407 126.446C148.287 126.646 148.006 126.847 147.765 126.847C147.565 126.847 147.404 126.646 147.404 126.446C147.404 126.205 147.685 126.045 148.046 126.045C148.367 126.045 148.527 126.205 148.407 126.446Z" fill="white"/>
<path d="M154.224 113.094C154.545 113.214 155.187 113.495 155.628 113.695C156.431 114.056 156.431 114.056 155.669 113.455C155.227 113.094 154.585 112.813 154.264 112.853C153.703 112.853 153.703 112.893 154.224 113.094Z" fill="white"/>
<path d="M189.93 125.844V138.876H171.195H152.419L154.224 139.918C155.227 140.52 157.955 141.963 160.322 143.126L164.615 145.291H180.061H195.547V129.052V112.813H192.738H189.93V125.844Z" fill="white"/>
<path d="M149.37 113.896C148.848 114.577 148.848 114.577 149.611 114.016C150.052 113.695 150.493 113.374 150.573 113.334C150.654 113.254 150.573 113.214 150.333 113.214C150.092 113.214 149.651 113.535 149.37 113.896Z" fill="white"/>
<path d="M156.912 114.818C157.073 115.139 157.313 116.301 157.474 117.424L157.715 119.429L157.795 117.585C157.795 116.462 157.594 115.5 157.193 114.978C156.872 114.577 156.712 114.497 156.912 114.818Z" fill="white"/>
<path d="M147.885 118.427C147.885 118.988 147.966 119.188 148.086 118.908C148.166 118.667 148.166 118.186 148.086 117.905C147.966 117.665 147.885 117.865 147.885 118.427Z" fill="white"/>
<path d="M156.07 120.913C155.428 121.554 155.107 122.035 155.307 122.035C155.749 122.035 157.675 120.111 157.394 119.91C157.313 119.87 156.712 120.311 156.07 120.913Z" fill="white"/>
<path d="M148.848 120.552C149.009 120.953 149.49 121.434 149.972 121.714C150.694 122.075 150.734 122.035 150.212 121.594C149.891 121.273 149.41 120.752 149.129 120.431C148.688 119.91 148.648 119.91 148.848 120.552Z" fill="white"/>
<path d="M37.0369 148.379C36.756 150.183 38.1201 153.19 39.7248 154.473C40.3266 154.955 41.45 155.516 42.2523 155.716C43.6966 156.157 141.386 156.518 141.386 156.117C141.386 155.997 138.979 154.513 136.091 152.789L130.835 149.702H117.275C104.116 149.702 103.674 149.662 103.273 148.9C102.832 148.098 102.431 148.098 69.9745 148.098C51.8809 148.098 37.077 148.218 37.0369 148.379Z" fill="white"/>
<path d="M172.719 148.659C173.04 149.02 180.101 151.266 183.511 152.108C188.045 153.23 192.337 153.671 195.787 153.27C198.917 152.95 201.565 151.667 201.565 150.504C201.565 150.103 201.685 149.501 201.805 149.141C202.046 148.579 200.602 148.499 187.282 148.499C179.178 148.499 172.639 148.579 172.719 148.659Z" fill="white"/>
<path d="M88.6649 177.472H112.105V183.26H103.495V210.958H97.2279V183.26H88.6649V177.472ZM116.904 177.472H128.385C133.121 177.472 137.14 179.098 140.393 182.303C143.693 185.509 145.32 189.431 145.32 194.072C145.32 198.807 143.693 202.826 140.44 206.079C137.187 209.332 133.169 210.958 128.385 210.958H116.904V177.472ZM123.171 205.026H128.337C131.638 205.026 134.222 203.974 136.087 201.917C138.001 199.812 138.957 197.181 138.957 194.072C138.957 191.058 138.001 188.57 136.087 186.513C134.222 184.456 131.638 183.404 128.337 183.404H123.171V205.026Z" fill="white"/>
</svg>
