<svg width="24" height="24" viewBox="0 0 24 24" fill="none" xmlns="http://www.w3.org/2000/svg">
<path d="M1.5 -3.44904e-06L0 1.5L3.3 6.1215C3.43892 6.31611 3.62236 6.4747 3.83502 6.58402C4.04767 6.69335 4.28339 6.75026 4.5225 6.75H4.6275C4.82472 6.74984 5.02003 6.78858 5.20226 6.864C5.3845 6.93941 5.55007 7.05002 5.6895 7.1895L9.702 11.202L5.7765 15.183C5.10509 14.9854 4.39686 14.9469 3.708 15.0706C3.01913 15.1944 2.36858 15.477 1.80795 15.896C1.24732 16.3149 0.792031 16.8588 0.478205 17.4844C0.164379 18.11 0.000648302 18.8001 0 19.5C0.000899195 20.1449 0.140406 20.7821 0.409067 21.3684C0.677729 21.9547 1.06927 22.4763 1.55716 22.8981C2.04505 23.3198 2.61789 23.6318 3.23687 23.8128C3.85586 23.9938 4.50652 24.0397 5.14477 23.9473C5.78303 23.8549 6.39396 23.6264 6.93619 23.2772C7.47842 22.9281 7.93926 22.4665 8.28751 21.9237C8.63576 21.3809 8.86326 20.7696 8.95462 20.1312C9.04597 19.4928 8.99904 18.8422 8.817 18.2235L12.798 14.298L14.25 15.75L13.7925 17.121C13.7046 17.3853 13.692 17.6688 13.7561 17.9398C13.8202 18.2108 13.9585 18.4586 14.1555 18.6555L19.0605 23.5605C19.1995 23.7003 19.3647 23.8112 19.5467 23.8869C19.7287 23.9626 19.9239 24.0015 20.121 24.0015C20.3181 24.0015 20.5133 23.9626 20.6953 23.8869C20.8773 23.8112 21.0425 23.7003 21.1815 23.5605L23.5605 21.1815C23.7003 21.0425 23.8112 20.8773 23.8869 20.6953C23.9626 20.5133 24.0016 20.3181 24.0016 20.121C24.0016 19.9239 23.9626 19.7287 23.8869 19.5467C23.8112 19.3647 23.7003 19.1995 23.5605 19.0605L18.6555 14.1555C18.4586 13.9585 18.2108 13.8202 17.9398 13.7561C17.6688 13.692 17.3853 13.7046 17.121 13.7925L15.75 14.25L14.31 12.81L18.33 8.8455C18.9969 9.02351 19.6957 9.046 20.3727 8.91122C21.0496 8.77643 21.6866 8.48799 22.2344 8.06812C22.7823 7.64826 23.2264 7.10818 23.5325 6.48954C23.8386 5.8709 23.9985 5.19023 24 4.5C24 4.095 23.949 3.7065 23.847 3.3345L20.637 6.546L18 6L17.454 3.3645L20.6655 0.152997C19.9015 -0.0524116 19.0969 -0.052795 18.3328 0.151885C17.5686 0.356565 16.8719 0.759074 16.3129 1.31884C15.7539 1.87861 15.3524 2.57585 15.1487 3.34028C14.9451 4.10471 14.9466 4.90932 15.153 5.673L11.193 9.69L7.1895 5.6895C6.90818 5.40826 6.75008 5.02679 6.75 4.629V4.5225C6.75002 4.28364 6.693 4.04822 6.58368 3.83585C6.47437 3.62347 6.31591 3.44027 6.1215 3.3015L1.5 -3.44904e-06ZM15.969 15.969C16.0387 15.8992 16.1214 15.8437 16.2126 15.8059C16.3037 15.7681 16.4013 15.7487 16.5 15.7487C16.5987 15.7487 16.6963 15.7681 16.7874 15.8059C16.8786 15.8437 16.9613 15.8992 17.031 15.969L21.402 20.3415C21.5386 20.4829 21.6142 20.6724 21.6125 20.869C21.6108 21.0657 21.5319 21.2538 21.3929 21.3929C21.2538 21.5319 21.0657 21.6108 20.8691 21.6125C20.6724 21.6142 20.483 21.5386 20.3415 21.402L15.969 17.031C15.8992 16.9613 15.8437 16.8786 15.8059 16.7874C15.7681 16.6963 15.7487 16.5986 15.7487 16.5C15.7487 16.4013 15.7681 16.3037 15.8059 16.2125C15.8437 16.1214 15.8992 16.0387 15.969 15.969ZM4.5 16.5L5.2065 16.863L6 16.902L6.4305 17.5695L7.098 18L7.137 18.7935L7.5 19.5L7.137 20.2065L7.098 21L6.4305 21.4305L6 22.098L5.2065 22.137L4.5 22.5L3.7935 22.137L3 22.098L2.5695 21.4305L1.902 21L1.863 20.2065L1.5 19.5L1.863 18.7935L1.902 18L2.5695 17.5695L3 16.902L3.7935 16.863L4.5 16.5Z" fill="#8D3EAD"/>
</svg>
