<svg width="70" height="70" viewBox="0 0 70 70" fill="none" xmlns="http://www.w3.org/2000/svg">
<path fill-rule="evenodd" clip-rule="evenodd" d="M32.9933 3.03334C32.0945 3.03434 31.2227 3.34056 30.5207 3.90183C29.8187 4.4631 29.3281 5.24614 29.1293 6.12267L28.0187 11.0227C26.2453 11.5422 24.5653 12.2391 22.9787 13.1133L18.732 10.4347C17.9707 9.95412 17.0685 9.74685 16.1738 9.84692C15.2791 9.94699 14.445 10.3485 13.8087 10.9853L10.9807 13.8133C10.3449 14.4494 9.94416 15.2826 9.84411 16.1763C9.74405 17.07 9.95064 17.9711 10.43 18.732L13.1087 22.988C12.2376 24.5716 11.5422 26.25 11.0227 28.0233L6.12267 29.134C5.24536 29.333 4.46173 29.8243 3.90037 30.5272C3.33902 31.2302 3.03329 32.1031 3.03334 33.0027V37.002C3.03329 37.9016 3.33902 38.7745 3.90037 39.4775C4.46173 40.1804 5.24536 40.6717 6.12267 40.8707L11.0227 41.9813C11.5391 43.7547 12.236 45.4347 13.1133 47.0213L10.43 51.268C9.94945 52.0293 9.74218 52.9315 9.84225 53.8262C9.94233 54.7209 10.3438 55.555 10.9807 56.1913L13.8133 59.0193C14.4494 59.6551 15.2826 60.0559 16.1763 60.1559C17.07 60.256 17.9711 60.0494 18.732 59.57L22.9833 56.8913C24.57 57.7625 26.2485 58.4578 28.0187 58.9773L29.1293 63.8773C29.3283 64.7547 29.8196 65.5383 30.5225 66.0996C31.2255 66.661 32.0984 66.9667 32.998 66.9667H36.9973C37.8969 66.9667 38.7698 66.661 39.4728 66.0996C40.1758 65.5383 40.667 64.7547 40.866 63.8773L41.9767 58.9773C43.75 58.4609 45.43 57.7656 47.0167 56.8913L51.268 59.57C52.0289 60.0494 52.9301 60.256 53.8238 60.1559C54.7175 60.0559 55.5506 59.6551 56.1867 59.0193L59.0147 56.1913C59.6504 55.5553 60.0512 54.7221 60.1512 53.8284C60.2513 52.9347 60.0447 52.0336 59.5653 51.2727L56.8867 47.0213C57.764 45.4347 58.4609 43.7547 58.9773 41.9813L63.8773 40.8707C64.7547 40.6717 65.5383 40.1804 66.0996 39.4775C66.661 38.7745 66.9667 37.9016 66.9667 37.002V33.0027C66.9678 32.1023 66.6625 31.2283 66.1011 30.5244C65.5397 29.8205 64.7554 29.3285 63.8773 29.1293L58.9773 28.0233C58.4609 26.25 57.7656 24.57 56.8913 22.9833L59.57 18.7367C60.0506 17.9754 60.2578 17.0732 60.1578 16.1785C60.0577 15.2837 59.6562 14.4497 59.0193 13.8133L56.1913 10.9853C55.555 10.3485 54.7209 9.94699 53.8262 9.84692C52.9315 9.74685 52.0293 9.95412 51.268 10.4347L47.0213 13.1133C45.4236 12.2327 43.7333 11.5316 41.9813 11.0227L40.866 6.12267C40.667 5.24536 40.1758 4.46173 39.4728 3.90037C38.7698 3.33902 37.8969 3.03329 36.9973 3.03334H32.9933ZM22.96 17.794C25.4657 16.0388 28.3245 14.8522 31.3367 14.3173L32.998 7.00001H36.9973L38.6587 14.3173C41.6704 14.8508 44.5293 16.0358 47.0353 17.7893L53.382 13.79L56.2147 16.618L52.2107 22.9647C53.9373 25.424 55.1413 28.266 55.6827 31.3413L63 33.0027V37.002L55.6827 38.6587C55.1498 41.6721 53.9649 44.5326 52.2107 47.04L56.21 53.3867L53.382 56.2147L47.0353 52.2153C44.5289 53.9672 41.6701 55.1506 38.6587 55.6827L36.9973 63H32.998L31.3367 55.6827C28.3266 55.1485 25.4693 53.9636 22.9647 52.2107L16.618 56.2147L13.7853 53.3867L17.7893 47.04C16.0352 44.5326 14.8502 41.6721 14.3173 38.6587L7.00001 37.0067V33.0073L14.3173 31.346C14.8515 28.3359 16.0364 25.4787 17.7893 22.974L13.7853 16.6133L16.6133 13.7853L22.96 17.794ZM42.1213 35C42.1213 36.8875 41.3716 38.6976 40.0369 40.0323C38.7023 41.3669 36.8921 42.1167 35.0047 42.1167C33.1172 42.1167 31.3071 41.3669 29.9724 40.0323C28.6378 38.6976 27.888 36.8875 27.888 35C27.888 33.1126 28.6378 31.3024 29.9724 29.9678C31.3071 28.6331 33.1172 27.8833 35.0047 27.8833C36.8921 27.8833 38.7023 28.6331 40.0369 29.9678C41.3716 31.3024 42.1213 33.1126 42.1213 35ZM46.3213 35C46.3213 38.0014 45.1291 40.8798 43.0068 43.0021C40.8845 45.1244 38.006 46.3167 35.0047 46.3167C32.0033 46.3167 29.1249 45.1244 27.0026 43.0021C24.8803 40.8798 23.688 38.0014 23.688 35C23.688 31.9986 24.8803 29.1202 27.0026 26.9979C29.1249 24.8756 32.0033 23.6833 35.0047 23.6833C38.006 23.6833 40.8845 24.8756 43.0068 26.9979C45.1291 29.1202 46.3213 31.9986 46.3213 35Z" fill="#8D3EAD"/>
</svg>
