<svg width="512" height="400" viewBox="0 0 512 400" fill="#fff" xmlns="http://www.w3.org/2000/svg">
<g clip-path="url(#clip0_31_3)">
<path d="M8.39998 0.879968C5.27998 1.75997 2.47998 4.31997 1.11998 7.67997C-0.640024 11.76 -0.560024 307.36 1.19998 311.28C2.55998 314.48 5.35998 317.2 8.31998 318.4C11.36 319.52 500.64 319.52 503.68 318.4C504.88 317.92 506.72 316.72 507.76 315.76C512.24 311.6 512 321.36 512 159.36C512 12.24 512 10.08 510.4 6.79997C509.52 5.03997 507.68 2.87997 506.24 1.99997C503.6 0.399968 501.12 0.399968 257.2 0.239968C116.16 0.159968 9.75998 0.479968 8.39998 0.879968ZM490.88 21.2C492.24 22.48 493.76 24.4 494.24 25.36C494.96 26.64 495.2 55.84 495.2 141.44C495.2 241.76 495.04 256.16 494 258.72C493.36 260.32 492.48 261.6 492.16 261.6C491.76 261.6 490.64 262.4 489.6 263.36L487.6 265.2H256H24.4L22.4 263.44C21.36 262.4 20.24 261.6 19.84 261.6C19.52 261.6 18.64 260.32 18 258.72C16.96 256.16 16.8 241.76 16.8 141.44C16.8 55.84 17.04 26.64 17.76 25.36C18.96 23.04 22.88 19.44 24.64 18.96C25.36 18.72 130.08 18.64 257.2 18.72L488.4 18.8L490.88 21.2Z" fill="#8D3EAD"/>
<path d="M204.96 57.36C203.04 57.76 201.6 60.4 201.6 63.52C201.6 66.24 204.96 68.64 210.96 70.16C214 70.88 216.56 71.68 216.8 72C217.04 72.24 218.96 73.12 221.04 73.92C226.48 75.92 231.52 81.12 233.92 87.2C234.72 89.2 235.6 90.96 235.92 91.2C236.24 91.44 236.88 92.88 237.28 94.4C238.08 96.96 237.84 97.52 235.28 100.8C233.68 102.8 231.92 104.88 231.44 105.44C230.88 106 230.4 106.88 230.4 107.36C230.4 107.76 229.76 109.12 228.88 110.24C228.08 111.44 226.72 114.56 225.92 117.2C225.12 119.84 224.16 122.24 223.76 122.48C223.36 122.72 223.2 124.16 223.36 125.68L223.6 128.4L256.72 128.64L289.76 128.8L289.2 125.04C288.88 122.88 288.4 121.04 288.08 120.8C287.68 120.56 286.8 118.32 286 115.76C285.2 113.28 284.32 111.2 283.92 111.2C283.6 111.2 282.88 109.92 282.4 108.32C281.84 106.8 280.96 105.28 280.32 105.04C279.68 104.8 279.2 104.16 279.2 103.68C279.2 103.12 278.08 101.6 276.72 100.16C274.64 98.08 274.32 97.28 274.8 95.2C275.12 93.92 275.6 92.8 275.92 92.8C276.24 92.8 276.96 91.44 277.52 89.76C278.88 86.16 283.12 78.4 283.84 78.4C284.16 78.4 285.44 77.52 286.72 76.4C288 75.28 290.4 74 292.16 73.6C293.84 73.12 295.2 72.48 295.2 72.08C295.2 71.76 298 70.88 301.52 70.16C308.8 68.56 310.4 67.2 310.4 62.72C310.4 58.8 309.28 57.6 305.6 57.6C301.6 57.6 293.6 59.28 293.6 60.08C293.6 60.48 293.04 60.8 292.4 60.8C290.48 60.8 283.76 63.28 282.64 64.48C282 65.12 281.04 65.6 280.4 65.6C278.96 65.6 272.8 71.2 272.8 72.48C272.8 72.96 272.32 73.6 271.76 73.84C271.2 74.08 270.24 75.68 269.6 77.52C269.04 79.36 268.32 80.8 268 80.8C267.68 80.8 266.8 82.96 265.92 85.6C265.12 88.24 264.24 90.4 264 90.4C255.44 90.96 248.8 90.64 248.8 89.76C248.8 89.28 248.48 88.8 248.16 88.8C247.84 88.8 246.88 86.96 246.08 84.8C245.28 82.56 244.32 80.8 243.92 80.8C243.52 80.8 243.2 80.32 243.2 79.76C243.2 76.24 235.2 66.4 231.44 65.2C230.4 64.96 229.6 64.4 229.6 64C229.6 63.68 227.2 62.72 224.24 61.92C221.2 61.12 218.64 60.24 218.4 59.92C218 59.44 207.84 56.72 207.12 56.88C206.96 56.96 206 57.2 204.96 57.36ZM247.6 108.4C248.72 109.52 249.6 111.28 249.6 112.16C249.6 114.56 246.56 117.6 244.08 117.6C241.52 117.6 238.4 114.64 238.4 112.32C238.4 110.08 241.92 106.4 244 106.4C244.88 106.4 246.48 107.28 247.6 108.4ZM271.6 108.16C273.52 109.6 273.76 110.24 273.36 112.96C272.88 116.8 272.88 116.72 269.52 117.28C267.52 117.6 266.32 117.36 265.12 116.24C262.16 113.68 262.08 111.68 264.8 108.88C267.76 105.92 268.64 105.84 271.6 108.16Z" fill="#8D3EAD"/>
<path d="M184.56 98.96C183.76 99.12 182.16 100.32 180.96 101.44C179.12 103.28 178.8 104.24 178.88 107.84C178.88 110.16 179.28 112.32 179.68 112.64C180.16 112.96 181.2 116.08 182 119.6C182.88 123.12 183.76 126.16 184.08 126.4C184.32 126.64 185.12 129.28 185.92 132.24C187.44 138.56 189.68 141.12 194.24 142C195.84 142.24 198 143.04 198.88 143.6C199.84 144.24 202.8 145.28 205.6 146C213.92 148.16 213.6 147.6 213.6 160V170.88L211.44 172.08C210.16 172.8 207.68 173.84 205.84 174.4C203.92 174.96 202.4 175.76 202.4 176.08C202.4 176.4 200.4 177.36 198 178.08C195.6 178.88 193.6 179.76 193.6 180.16C193.6 180.48 193.04 180.8 192.32 180.8C190.96 180.8 188.8 185.36 188.8 188.4C188.8 189.52 188.48 190.4 188.08 190.4C187.68 190.4 186.72 194.56 186 199.6C185.2 204.64 184.32 208.8 184 208.8C183.68 208.8 183.04 211.76 182.48 215.36C181.36 222.72 182 225.92 184.72 226.8C185.68 227.04 186.4 227.68 186.4 228.08C186.4 228.48 188 228.8 190 228.8C192 228.8 193.6 228.48 193.6 228.16C193.6 227.76 194.48 227.04 195.52 226.56C197.12 225.84 197.6 224.8 198.4 219.84C198.96 216.64 199.68 213.6 200 213.2C200.4 212.72 201.28 208.64 202.08 204C203.2 197.12 203.76 195.28 205.52 193.6C207.36 191.84 214.32 188.8 216.56 188.8C217.04 188.8 217.84 190.32 218.4 192.16C218.96 194.08 220 196.48 220.8 197.6C221.52 198.72 222.4 200.24 222.64 200.96C222.96 201.76 223.52 202.4 224 202.4C224.4 202.4 224.8 202.88 224.8 203.36C224.8 204.96 234 213.52 236.72 214.48C238.08 214.96 239.2 215.68 239.2 216C239.2 216.8 249.28 219.2 252.32 219.2H254.4V176V132.8H235.68C225.36 132.8 216.72 132.48 216.48 132.08C216.24 131.68 214.08 130.88 211.84 130.4C204.16 128.56 201.68 127.12 201.12 124.24C200.88 122.8 200.4 121.6 200.08 121.6C199.76 121.6 198.88 118.72 198.08 115.2C197.36 111.68 196.4 108.8 196.08 108.8C195.68 108.8 195.2 107.44 194.88 105.76C194.16 101.04 189.12 97.76 184.56 98.96Z" fill="#8D3EAD"/>
<path d="M321.6 99.92C321.6 100.32 320.88 100.8 320.08 101.04C319.04 101.28 318.16 102.64 317.52 104.88C316.96 106.8 316.24 108.56 316 108.8C315.68 109.04 314.8 112.16 313.92 115.76C313.12 119.44 312.16 122.4 311.84 122.4C311.44 122.4 311.2 123.04 311.2 123.84C311.2 126.4 308.56 128.4 303.2 130C300.32 130.8 297.84 131.84 297.6 132.16C297.36 132.48 288.48 132.88 278 132.96L258.8 133.2L258.56 176.32L258.4 219.44L263.52 218.88C268.4 218.4 273.52 217.04 274.4 216.08C274.64 215.84 276 214.88 277.52 214.08C283.12 210.96 288.48 205.52 290.64 200.8C291.2 199.68 292 198.4 292.48 197.84C292.96 197.28 293.84 195.28 294.48 193.28C295.04 191.28 295.92 189.52 296.48 189.28C297.44 188.88 305.76 192.88 307.44 194.56C308 195.12 309.2 198.8 310 202.8C310.8 206.72 311.68 210.16 312 210.4C312.24 210.64 313.12 213.84 313.92 217.52C315.04 222.72 315.84 224.8 317.6 226.56C321.92 230.88 329.6 228.88 330.8 223.04C331.36 220.56 328.88 205.6 327.92 205.6C327.68 205.6 326.72 202.24 326 198.16C325.2 194.16 324.32 190.64 324 190.4C323.68 190.16 323.12 188.4 322.72 186.4C322.16 183.6 321.52 182.56 319.6 181.68C318.24 181.04 317.04 180.32 316.8 180.08C316.56 179.84 312.56 177.68 307.84 175.28L299.2 170.96V167.92C299.2 166.24 299.6 164.64 300 164.4C300.48 164.16 300.8 160.64 300.8 156.72C300.8 151.6 301.12 149.12 301.92 148.4C302.56 147.76 305.36 146.64 308.08 145.84C310.88 145.12 313.36 144.24 313.6 144C313.84 143.76 315.6 143.04 317.6 142.48C322.64 141.04 325.2 137.84 326.48 131.52C327.04 128.72 327.76 126.4 328 126.4C328.32 126.4 329.2 123.6 330 120.16C330.8 116.8 331.84 113.76 332.32 113.44C332.72 113.12 333.12 110.88 333.12 108.4C333.2 104.16 333.04 103.68 330.4 101.52C328.48 99.84 326.8 99.2 324.64 99.2C322.96 99.2 321.6 99.52 321.6 99.92Z" fill="#8D3EAD"/>
<path d="M187.2 343.2C187.2 348.24 185.12 360.08 184.08 360.8C183.76 361.04 182.8 363.12 182 365.36C181.12 367.68 180.24 369.6 180 369.6C179.68 369.6 179.04 370.56 178.48 371.68C177.36 374.24 172.88 380 171.04 381.44C170.24 382 169.6 382.88 169.6 383.36C169.6 384.32 164.96 388.8 164 388.8C163.6 388.8 162.64 389.6 161.84 390.56C161.04 391.6 158.72 393.68 156.64 395.2C154.56 396.72 152.8 398.48 152.8 398.96C152.8 399.76 174 400 256.08 400C361.04 400 362.08 400 357.2 397.28C356.32 396.8 355.12 395.76 354.56 394.96C354 394.24 353.12 393.6 352.64 393.6C352.24 393.6 350.88 392.64 349.68 391.36C348.48 390.16 346.16 388.16 344.56 386.88C342.96 385.6 341.6 384.16 341.6 383.76C341.6 383.36 340.8 382.16 339.84 381.2C336.96 378.48 335.2 376.08 333.84 373.12C333.12 371.6 332.24 370.4 331.92 370.4C331.6 370.4 330.72 368.48 329.92 366.24C329.2 363.92 328.32 361.84 328.08 361.6C327.04 360.88 325.52 352.4 325.04 345.36L324.56 338.4H255.92H187.2V343.2Z" fill="#8D3EAD"/>
</g>
<defs>
<clipPath id="clip0_31_3">
<rect width="512" height="400" fill="white"/>
</clipPath>
</defs>
</svg>
